<svg width="42" height="42" viewBox="0 0 42 42" fill="none" xmlns="http://www.w3.org/2000/svg">
<path d="M23.334 11.6659C28.241 11.6659 30.334 13.7589 30.334 18.6659H35.0007C35.0007 11.1409 30.859 6.99925 23.334 6.99925V11.6659ZM31.3187 24.3663C30.8703 23.9587 30.2811 23.7414 29.6755 23.7601C29.07 23.7788 28.4953 24.0322 28.073 24.4666L22.4893 30.2089C21.1453 29.9523 18.4433 29.1099 15.662 26.3356C12.8807 23.5519 12.0383 20.8429 11.7887 19.5083L17.5263 13.9223C17.9613 13.5002 18.215 12.9255 18.2337 12.3197C18.2524 11.714 18.0347 11.1247 17.6267 10.6766L9.00499 1.19626C8.59676 0.746754 8.02938 0.474099 7.42335 0.436195C6.81732 0.398291 6.22039 0.598125 5.75933 0.993256L0.695992 5.33559C0.292584 5.74046 0.0518035 6.27931 0.0193246 6.84992C-0.0156754 7.43325 -0.683009 21.2513 10.0317 31.9706C19.379 41.3156 31.0877 41.9992 34.3123 41.9992C34.7837 41.9992 35.073 41.9852 35.15 41.9806C35.7205 41.9486 36.2591 41.7068 36.662 41.3016L41.002 36.2359C41.3974 35.7752 41.5977 35.1784 41.5602 34.5724C41.5227 33.9664 41.2505 33.3988 40.8013 32.9903L31.3187 24.3663Z" fill="white"/>
</svg>
