<svg width="11" height="25" viewBox="0 0 11 25" fill="none" xmlns="http://www.w3.org/2000/svg">
<path d="M10.5 5.46973C10.5 6.11816 10.3867 6.73926 10.1602 7.33301C9.93359 7.91895 9.62109 8.44629 9.22266 8.91504C8.82422 9.37598 8.34766 9.7627 7.79297 10.0752C7.24609 10.3799 6.64844 10.5752 6 10.6611V22.7197L5.25 24.2197L4.5 22.7197V10.6611C3.85156 10.5752 3.25 10.3799 2.69531 10.0752C2.14844 9.7627 1.67578 9.37598 1.27734 8.91504C0.878906 8.44629 0.566406 7.91895 0.339844 7.33301C0.113281 6.73926 0 6.11816 0 5.46973C0 4.74316 0.136719 4.06348 0.410156 3.43066C0.683594 2.79004 1.05859 2.23145 1.53516 1.75488C2.01172 1.27832 2.56641 0.90332 3.19922 0.629883C3.83984 0.356445 4.52344 0.219727 5.25 0.219727C5.97656 0.219727 6.65625 0.356445 7.28906 0.629883C7.92969 0.90332 8.48828 1.27832 8.96484 1.75488C9.44141 2.23145 9.81641 2.79004 10.0898 3.43066C10.3633 4.06348 10.5 4.74316 10.5 5.46973ZM5.25 9.21973C5.76562 9.21973 6.25 9.12207 6.70312 8.92676C7.15625 8.73145 7.55078 8.46582 7.88672 8.12988C8.23047 7.78613 8.5 7.3877 8.69531 6.93457C8.89844 6.47363 9 5.98535 9 5.46973C9 4.9541 8.89844 4.46973 8.69531 4.0166C8.5 3.56348 8.23047 3.16895 7.88672 2.83301C7.55078 2.48926 7.15625 2.21973 6.70312 2.02441C6.25 1.82129 5.76562 1.71973 5.25 1.71973C4.73438 1.71973 4.24609 1.82129 3.78516 2.02441C3.33203 2.21973 2.93359 2.48926 2.58984 2.83301C2.25391 3.16895 1.98828 3.56348 1.79297 4.0166C1.59766 4.46973 1.5 4.9541 1.5 5.46973C1.5 5.98535 1.59766 6.47363 1.79297 6.93457C1.98828 7.3877 2.25391 7.78613 2.58984 8.12988C2.93359 8.46582 3.33203 8.73145 3.78516 8.92676C4.24609 9.12207 4.73438 9.21973 5.25 9.21973Z" fill="#242C34"/>
</svg>
