<svg width="24" height="25" viewBox="0 0 24 25" fill="none" xmlns="http://www.w3.org/2000/svg">
<path d="M18.832 14.4346C19.1758 14.4346 19.5039 14.501 19.8164 14.6338C20.1367 14.7588 20.418 14.9424 20.6602 15.1846L23.2383 17.7627C23.4805 18.0049 23.6641 18.2861 23.7891 18.6064C23.9219 18.9189 23.9883 19.2471 23.9883 19.5908C23.9883 19.9346 23.9219 20.2666 23.7891 20.5869C23.6641 20.8994 23.4805 21.1768 23.2383 21.4189L23.0742 21.583C22.6523 22.0049 22.2656 22.3799 21.9141 22.708C21.5625 23.0361 21.1953 23.3135 20.8125 23.54C20.4297 23.7588 20.0039 23.9268 19.5352 24.0439C19.0664 24.1611 18.5078 24.2197 17.8594 24.2197C16.8828 24.2197 15.8789 24.0674 14.8477 23.7627C13.8164 23.458 12.7891 23.0361 11.7656 22.4971C10.75 21.958 9.75 21.3174 8.76562 20.5752C7.78906 19.833 6.86328 19.0244 5.98828 18.1494C5.12109 17.2666 4.32031 16.3369 3.58594 15.3604C2.85156 14.376 2.21875 13.376 1.6875 12.3604C1.15625 11.3369 0.742188 10.3174 0.445312 9.30176C0.148438 8.28613 0 7.30176 0 6.34863C0 5.7002 0.0546875 5.14551 0.164062 4.68457C0.28125 4.22363 0.449219 3.80176 0.667969 3.41895C0.894531 3.03613 1.16797 2.67285 1.48828 2.3291C1.81641 1.97754 2.19141 1.59082 2.61328 1.16895L2.80078 0.981445C3.04297 0.739258 3.32031 0.551758 3.63281 0.418945C3.94531 0.286133 4.27734 0.219727 4.62891 0.219727C4.97266 0.219727 5.30078 0.286133 5.61328 0.418945C5.93359 0.551758 6.21484 0.739258 6.45703 0.981445L9.03516 3.55957C9.27734 3.80176 9.46094 4.08301 9.58594 4.40332C9.71875 4.71582 9.78516 5.04395 9.78516 5.3877C9.78516 5.73145 9.72656 6.04004 9.60938 6.31348C9.49219 6.5791 9.34766 6.82129 9.17578 7.04004C9.00391 7.25879 8.8125 7.45801 8.60156 7.6377C8.39844 7.81738 8.21094 7.99316 8.03906 8.16504C7.86719 8.33691 7.72266 8.5127 7.60547 8.69238C7.48828 8.86426 7.42969 9.05176 7.42969 9.25488C7.42969 9.55176 7.53516 9.80566 7.74609 10.0166L14.2031 16.4736C14.4141 16.6846 14.668 16.79 14.9648 16.79C15.168 16.79 15.3555 16.7314 15.5273 16.6143C15.707 16.4971 15.8828 16.3525 16.0547 16.1807C16.2266 16.0088 16.4023 15.8213 16.582 15.6182C16.7617 15.4072 16.9609 15.2158 17.1797 15.0439C17.3984 14.8721 17.6406 14.7275 17.9062 14.6104C18.1797 14.4932 18.4883 14.4346 18.832 14.4346ZM17.8594 22.7197C18.4219 22.7197 18.8906 22.6689 19.2656 22.5674C19.6484 22.458 19.9922 22.3057 20.2969 22.1104C20.6016 21.9072 20.8984 21.6572 21.1875 21.3604C21.4766 21.0635 21.8086 20.7275 22.1836 20.3525C22.3945 20.1416 22.5 19.8877 22.5 19.5908C22.5 19.4502 22.4414 19.2861 22.3242 19.0986C22.2148 18.9033 22.0703 18.7002 21.8906 18.4893C21.7109 18.2783 21.5078 18.0635 21.2812 17.8447C21.0625 17.6182 20.8438 17.4072 20.625 17.2119C20.4141 17.0088 20.2148 16.8252 20.0273 16.6611C19.8477 16.4893 19.707 16.3525 19.6055 16.251C19.3945 16.04 19.1367 15.9346 18.832 15.9346C18.6289 15.9346 18.4414 15.9932 18.2695 16.1104C18.0977 16.2275 17.9258 16.3721 17.7539 16.5439C17.582 16.7158 17.4023 16.9072 17.2148 17.1182C17.0352 17.3213 16.8359 17.5088 16.6172 17.6807C16.3984 17.8525 16.1523 17.9971 15.8789 18.1143C15.6133 18.2314 15.3086 18.29 14.9648 18.29C14.6211 18.29 14.2891 18.2275 13.9688 18.1025C13.6562 17.9697 13.3789 17.7822 13.1367 17.54L6.67969 11.083C6.4375 10.8408 6.25 10.5635 6.11719 10.251C5.99219 9.93066 5.92969 9.59863 5.92969 9.25488C5.92969 8.91113 5.98828 8.60645 6.10547 8.34082C6.22266 8.06738 6.36719 7.82129 6.53906 7.60254C6.71094 7.38379 6.89844 7.18457 7.10156 7.00488C7.3125 6.81738 7.50391 6.6377 7.67578 6.46582C7.84766 6.29395 7.99219 6.12207 8.10938 5.9502C8.22656 5.77832 8.28516 5.59082 8.28516 5.3877C8.28516 5.08301 8.17969 4.8252 7.96875 4.61426C7.86719 4.5127 7.73047 4.37207 7.55859 4.19238C7.39453 4.00488 7.21094 3.80566 7.00781 3.59473C6.8125 3.37598 6.60156 3.15723 6.375 2.93848C6.15625 2.71191 5.94141 2.50879 5.73047 2.3291C5.51953 2.14941 5.31641 2.00488 5.12109 1.89551C4.93359 1.77832 4.76953 1.71973 4.62891 1.71973C4.33203 1.71973 4.07812 1.8252 3.86719 2.03613C3.49219 2.41113 3.15625 2.74316 2.85938 3.03223C2.57031 3.32129 2.32031 3.61816 2.10938 3.92285C1.90625 4.22754 1.75 4.57129 1.64062 4.9541C1.53906 5.3291 1.48828 5.79395 1.48828 6.34863C1.48828 7.22363 1.62891 8.12598 1.91016 9.05566C2.19922 9.98535 2.59375 10.915 3.09375 11.8447C3.60156 12.7744 4.19922 13.6924 4.88672 14.5986C5.57422 15.4971 6.32422 16.3486 7.13672 17.1533C7.94922 17.958 8.80469 18.7002 9.70312 19.3799C10.6094 20.0596 11.5234 20.6494 12.4453 21.1494C13.375 21.6416 14.2969 22.0283 15.2109 22.3096C16.1328 22.583 17.0156 22.7197 17.8594 22.7197Z" fill="#242C34"/>
</svg>
